<svg width="31" height="34" viewBox="0 0 31 34" fill="none" xmlns="http://www.w3.org/2000/svg">
<rect width="30.7789" height="30.7789" rx="5" fill="white"/>
<path d="M3.80744 13.4405H8.58644V28.0205H3.80744V13.4405ZM6.21044 6.74451C6.94844 6.74451 7.55144 6.98751 8.01944 7.47351C8.50544 7.94151 8.74844 8.54451 8.74844 9.28251C8.74844 10.0025 8.50544 10.6055 8.01944 11.0915C7.55144 11.5595 6.94844 11.7935 6.21044 11.7935C5.47244 11.7935 4.86044 11.5595 4.37444 11.0915C3.90644 10.6055 3.67244 10.0025 3.67244 9.28251C3.67244 8.54451 3.90644 7.94151 4.37444 7.47351C4.86044 6.98751 5.47244 6.74451 6.21044 6.74451ZM22.4233 20.1635C22.4233 19.3355 22.1983 18.6785 21.7483 18.1925C21.2983 17.7065 20.6953 17.4635 19.9393 17.4635C19.0393 17.4815 18.3283 17.8055 17.8063 18.4355C17.3023 19.0475 17.0503 19.8395 17.0503 20.8115H15.9163C15.9163 19.1555 16.1593 17.7695 16.6453 16.6535C17.1313 15.5195 17.8153 14.6645 18.6973 14.0885C19.5973 13.5125 20.6683 13.2245 21.9103 13.2245C22.9723 13.2245 23.8993 13.4585 24.6913 13.9265C25.5013 14.3765 26.1223 15.0245 26.5543 15.8705C26.9863 16.6985 27.2023 17.6795 27.2023 18.8135V28.0205H22.4233V20.1635ZM12.2713 13.4405H17.0773V28.0205H12.2713V13.4405Z" fill="#E4032E"/>
</svg>
